<?xml version="1.0" encoding="UTF-8"?>
<svg width="1200pt" height="1200pt" version="1.1" viewBox="0 0 1200 1200" xmlns="http://www.w3.org/2000/svg">
 <path d="m600 1140c-8.3984 0-15.602-2.3984-22.801-6l-492-268.8c-22.801-13.199-32.398-42-19.199-64.801 13.199-22.801 42-32.398 64.801-19.199l466.8 254.4 468-297.6c22.801-14.398 51.602-7.1992 66 14.398 14.398 22.801 7.1992 51.602-14.398 66l-492 313.2c-7.2031 6.0078-16.805 8.4062-25.203 8.4062zm0-223.2c-8.3984 0-15.602-2.3984-22.801-6l-492-268.8c-22.801-13.199-32.398-42-19.199-64.801s42-32.398 64.801-19.199l466.8 254.4 468-297.6c22.801-14.398 51.602-7.1992 66 14.398 14.398 22.801 7.1992 51.602-14.398 66l-492 313.2c-7.2031 6.0039-16.805 8.4062-25.203 8.4062zm0-224.4c-8.3984 0-15.602-2.3984-22.801-6l-492-268.8c-15.602-8.3984-25.199-24-25.199-42s9.6016-33.602 25.199-42l492-268.8c13.199-7.1992 28.801-7.1992 43.199-1.1992l492 223.2c15.602 7.1992 26.398 22.801 27.602 40.801 1.1992 18-7.1992 34.801-21.602 44.398l-492 313.2c-8.3984 4.8047-18 7.2031-26.398 7.2031z" fill="#fff"/>
</svg>
